<?xml version="1.0" encoding="UTF-8"?>
<svg id="_レイヤー_1" data-name="レイヤー 1" xmlns="http://www.w3.org/2000/svg" viewBox="0 0 171.33 163.11">
  <defs>
    <style>
      .cls-1 {
        fill: #307ac0;
      }

      .cls-1, .cls-2 {
        stroke-width: 0px;
      }

      .cls-3 {
        fill: none;
        stroke: #231815;
        stroke-miterlimit: 10;
      }

      .cls-2 {
        fill: #fff;
      }
    </style>
  </defs>
  <g>
    <polygon class="cls-1" points="83.57 150.52 38.49 150.67 10.29 21.57 81.79 7.01 83.57 150.52"/>
    <polygon class="cls-2" points="82.61 72.82 52.9 72.95 51.41 58.74 82.43 58.6 82.61 72.82"/>
    <polygon class="cls-2" points="58.53 126.77 33.8 126.86 31.88 117.08 57.51 116.98 58.53 126.77"/>
    <polygon class="cls-1" points="133.6 150.35 88.45 150.5 89.54 6.97 161.2 20.76 133.6 150.35"/>
    <polygon class="cls-2" points="134.67 65.63 104.28 65.77 105.08 50.9 136.84 50.75 134.67 65.63"/>
    <polygon class="cls-2" points="140.54 114.22 114.62 114.31 115.69 103.58 142.6 103.47 140.54 114.22"/>
    <polygon class="cls-2" points="82.71 80.95 81.79 7.01 89.54 6.97 88.98 80.92 82.71 80.95"/>
    <polygon class="cls-2" points="98.99 153.9 101.12 116.99 106.76 116.97 103.8 153.89 98.99 153.9"/>
  </g>
  <g>
    <polygon class="cls-3" points="83.22 162.44 32.39 162.6 .6 17.06 81.21 .65 83.22 162.44"/>
    <polygon class="cls-3" points="139.62 162.25 88.72 162.42 89.94 .6 170.73 16.14 139.62 162.25"/>
  </g>
</svg>